<svg xmlns="http://www.w3.org/2000/svg" xmlns:xlink="http://www.w3.org/1999/xlink" width="0" height="0" style="position:absolute">
    <symbol id="sale01"  viewBox="0 0 25 25">
        <g>
            <circle cx="12.5" cy="12.5" r="12.5" fill="#ff6749"/>
            <path fill="#ffffff" d="M8.773,17.840 C8.687,17.940 8.564,17.991 8.439,17.991 C8.341,17.991 8.243,17.959 8.161,17.894 C7.977,17.744 7.952,17.478 8.106,17.298 L16.786,7.161 C16.939,6.982 17.212,6.957 17.397,7.107 C17.581,7.256 17.606,7.522 17.453,7.702 L8.773,17.840 ZM10.175,11.233 C8.979,11.233 8.005,10.285 8.005,9.121 C8.005,7.956 8.979,7.009 10.175,7.009 C11.372,7.009 12.345,7.956 12.345,9.121 C12.345,10.285 11.372,11.233 10.175,11.233 ZM10.175,7.854 C9.458,7.854 8.873,8.422 8.873,9.121 C8.873,9.820 9.458,10.388 10.175,10.388 C10.893,10.388 11.477,9.820 11.477,9.121 C11.477,8.422 10.893,7.854 10.175,7.854 ZM15.817,13.767 C17.014,13.767 17.987,14.715 17.987,15.879 C17.987,17.044 17.014,17.991 15.817,17.991 C14.621,17.991 13.647,17.044 13.647,15.879 C13.647,14.715 14.621,13.767 15.817,13.767 ZM15.817,17.147 C16.535,17.147 17.119,16.578 17.119,15.879 C17.119,15.181 16.535,14.612 15.817,14.612 C15.099,14.612 14.515,15.181 14.515,15.879 C14.515,16.578 15.099,17.147 15.817,17.147 Z" />
        </g>
    </symbol>
	<symbol id="facebook" viewBox="0 0 430.113 430.114">
		<g>
			<path id="Facebook" d="M158.081,83.3c0,10.839,0,59.218,0,59.218h-43.385v72.412h43.385v215.183h89.122V214.936h59.805   c0,0,5.601-34.721,8.316-72.685c-7.784,0-67.784,0-67.784,0s0-42.127,0-49.511c0-7.4,9.717-17.354,19.321-17.354   c9.586,0,29.818,0,48.557,0c0-9.859,0-43.924,0-75.385c-25.016,0-53.476,0-66.021,0C155.878-0.004,158.081,72.48,158.081,83.3z"/>
		</g>
	</symbol>
	<symbol id="twitter" viewBox="0 0 90 90">
		<g>
			<path id="twitter" d="M67.261,67.496H45.054c-3.087,0-5.712-1.08-7.869-3.25c-2.167-2.172-3.238-4.797-3.238-7.898v-7.904H65.59   c2.854,0,5.312-1.025,7.354-3.062c2.041-2.054,3.066-4.509,3.066-7.366c0-2.867-1.025-5.319-3.072-7.366   c-2.049-2.042-4.515-3.066-7.381-3.066H33.946V11.254c0-3.09-1.102-5.735-3.29-7.939C28.478,1.107,25.842,0,22.782,0   c-3.146,0-5.825,1.091-8.004,3.25C12.591,5.416,11.5,8.084,11.5,11.264v45.089c0,9.274,3.278,17.197,9.837,23.773   C27.901,86.715,35.814,90,45.066,90h22.203c3.082,0,5.729-1.107,7.93-3.314c2.203-2.197,3.302-4.849,3.302-7.936   c0-3.088-1.099-5.734-3.302-7.941C72.997,68.607,70.347,67.496,67.261,67.496z"/>
		</g>
	</symbol>
	<symbol id="in" viewBox="0 0 430.117 430.117">
		<g>
			<path d="M430.117,261.543V420.56h-92.188V272.193c0-37.271-13.334-62.707-46.703-62.707   c-25.473,0-40.632,17.142-47.301,33.724c-2.432,5.928-3.058,14.179-3.058,22.477V420.56h-92.219c0,0,1.242-251.285,0-277.32h92.21   v39.309c-0.187,0.294-0.43,0.611-0.606,0.896h0.606v-0.896c12.251-18.869,34.13-45.824,83.102-45.824   C384.633,136.724,430.117,176.361,430.117,261.543z M52.183,9.558C20.635,9.558,0,30.251,0,57.463   c0,26.619,20.038,47.94,50.959,47.94h0.616c32.159,0,52.159-21.317,52.159-47.94C103.128,30.251,83.734,9.558,52.183,9.558z    M5.477,420.56h92.184v-277.32H5.477V420.56z"/>
		</g>
	</symbol>
	<symbol id="youtube" viewBox="0 0 90 90">
		<g>
			<path d="M70.939,65.832H66l0.023-2.869c0-1.275,1.047-2.318,2.326-2.318h0.315c1.282,0,2.332,1.043,2.332,2.318   L70.939,65.832z M52.413,59.684c-1.253,0-2.278,0.842-2.278,1.873V75.51c0,1.029,1.025,1.869,2.278,1.869   c1.258,0,2.284-0.84,2.284-1.869V61.557C54.697,60.525,53.671,59.684,52.413,59.684z M82.5,51.879v26.544   C82.5,84.79,76.979,90,70.23,90H19.771C13.02,90,7.5,84.79,7.5,78.423V51.879c0-6.367,5.52-11.578,12.271-11.578H70.23   C76.979,40.301,82.5,45.512,82.5,51.879z M23.137,81.305l-0.004-27.961l6.255,0.002v-4.143l-16.674-0.025v4.073l5.205,0.015v28.039   H23.137z M41.887,57.509h-5.215v14.931c0,2.16,0.131,3.24-0.008,3.621c-0.424,1.158-2.33,2.388-3.073,0.125   c-0.126-0.396-0.015-1.591-0.017-3.643l-0.021-15.034h-5.186l0.016,14.798c0.004,2.268-0.051,3.959,0.018,4.729   c0.127,1.357,0.082,2.939,1.341,3.843c2.346,1.69,6.843-0.252,7.968-2.668l-0.01,3.083l4.188,0.005L41.887,57.509L41.887,57.509z    M58.57,74.607L58.559,62.18c-0.004-4.736-3.547-7.572-8.356-3.74l0.021-9.239l-5.209,0.008l-0.025,31.89l4.284-0.062l0.39-1.986   C55.137,84.072,58.578,80.631,58.57,74.607z M74.891,72.96l-3.91,0.021c-0.002,0.155-0.008,0.334-0.01,0.529v2.182   c0,1.168-0.965,2.119-2.137,2.119h-0.766c-1.174,0-2.139-0.951-2.139-2.119V75.45v-2.4v-3.097h8.954v-3.37   c0-2.463-0.063-4.925-0.267-6.333c-0.641-4.454-6.893-5.161-10.051-2.881c-0.991,0.712-1.748,1.665-2.188,2.945   c-0.444,1.281-0.665,3.031-0.665,5.254v7.41C61.714,85.296,76.676,83.555,74.891,72.96z M54.833,32.732   c0.269,0.654,0.687,1.184,1.254,1.584c0.56,0.394,1.276,0.592,2.134,0.592c0.752,0,1.418-0.203,1.998-0.622   c0.578-0.417,1.065-1.04,1.463-1.871l-0.099,2.046h5.813V9.74H62.82v19.24c0,1.042-0.858,1.895-1.907,1.895   c-1.043,0-1.904-0.853-1.904-1.895V9.74h-4.776v16.674c0,2.124,0.039,3.54,0.102,4.258C54.4,31.385,54.564,32.069,54.833,32.732z    M37.217,18.77c0-2.373,0.198-4.226,0.591-5.562c0.396-1.331,1.107-2.401,2.137-3.208c1.027-0.811,2.342-1.217,3.941-1.217   c1.345,0,2.497,0.264,3.459,0.781c0.967,0.52,1.713,1.195,2.23,2.028c0.527,0.836,0.885,1.695,1.076,2.574   c0.195,0.891,0.291,2.235,0.291,4.048v6.252c0,2.293-0.092,3.98-0.271,5.051c-0.177,1.074-0.557,2.07-1.146,3.004   c-0.58,0.924-1.329,1.615-2.237,2.056c-0.918,0.445-1.968,0.663-3.154,0.663c-1.325,0-2.441-0.183-3.361-0.565   c-0.923-0.38-1.636-0.953-2.144-1.714c-0.513-0.762-0.874-1.69-1.092-2.772c-0.219-1.081-0.323-2.707-0.323-4.874L37.217,18.77   L37.217,18.77z M41.77,28.59c0,1.4,1.042,2.543,2.311,2.543c1.27,0,2.308-1.143,2.308-2.543V15.43c0-1.398-1.038-2.541-2.308-2.541   c-1.269,0-2.311,1.143-2.311,2.541V28.59z M25.682,35.235h5.484l0.006-18.96l6.48-16.242h-5.998l-3.445,12.064L24.715,0h-5.936   l6.894,16.284L25.682,35.235z"/>
		</g>
	</symbol>
</svg>



